<svg width="584" height="626" viewBox="0 0 584 626" fill="none" xmlns="http://www.w3.org/2000/svg">
<g clip-path="url(#clip0_104_111)">
<g opacity="0.35" filter="url(#filter0_f_104_111)">
<path d="M267.777 153.952C283.274 68.215 385.94 109.68 406.023 117.603C407.767 119.36 438.618 118.184 475.774 241.069C512.929 363.955 397.861 392.718 349.942 379.623C302.023 366.527 310.535 421.974 264.835 500.738C219.135 579.502 135.218 450.883 126.321 383.332C117.425 315.781 221.088 347.056 246.37 341.07C271.653 335.083 252.279 239.689 267.777 153.952Z" fill="url(#paint0_linear_104_111)"/>
</g>
<path d="M243.069 506.424C108.825 506.424 -0.00100708 400.668 -0.00100708 270.212C-0.00100708 139.756 108.825 34 243.07 34C377.315 34 486.14 139.756 486.14 270.212C486.14 400.668 377.314 506.424 243.07 506.424H243.069Z" fill="url(#paint1_linear_104_111)" fill-opacity="0.05"/>
<path d="M49.9148 437.194C43.3911 432.974 38.9384 425.07 37.3314 417.621C35.7932 410.487 36.2935 400.606 43.3355 396.455C45.9002 394.943 49.3538 394.975 50.5819 398.136C51.7246 401.071 49.9957 404.027 47.1032 404.973C39.2911 407.525 33.8822 397.407 32.6537 391.222C31.8737 387.296 32.0298 383.241 33.1094 379.386C34.1125 375.829 35.9478 371.812 38.9509 369.524C39.3833 369.196 40.0202 369.837 39.7194 370.276C38.1033 372.619 36.3846 374.716 35.2996 377.387C34.1711 380.159 33.6074 383.168 33.5849 386.157C33.5376 392.091 35.7932 399.461 41.082 402.824C43.885 404.604 49.6116 404.511 49.6526 400.061C49.668 398.259 48.476 396.612 46.5601 396.675C44.8117 396.736 43.1412 397.928 41.9575 399.115C37.1378 403.951 37.1408 412.083 38.6076 418.302C39.4427 421.825 40.8528 425.187 42.7812 428.251C44.8394 431.528 47.4737 434.082 50.3135 436.659C50.5923 436.91 50.238 437.403 49.9148 437.194Z" fill="#FFBD59"/>
<path d="M51.6532 438.416C43.5136 435.553 37.9986 427.906 36.5988 419.545C35.9261 415.522 36.0807 411.405 36.8476 407.41C37.6314 403.333 38.9038 398.725 41.678 395.53C43.6113 393.298 48.0539 390.962 50.3479 394.099C52.3693 396.858 51.7229 401.79 49.3865 404.144C46.7707 406.779 42.5375 406.179 39.7774 404.118C36.4817 401.656 34.5839 397.429 33.4791 393.577C31.0597 385.14 32.5171 375.685 37.541 368.491C38.0199 367.806 39.1726 368.428 38.6933 369.131C35.0964 374.385 33.3707 380.698 33.7286 387.063C33.9095 390.305 34.6495 393.54 35.943 396.526C37.4258 399.943 39.7666 403.793 43.7175 404.55C48.0786 405.387 50.5723 401.58 50.2263 397.603C50.0248 395.282 48.8537 393.342 46.2239 393.932C44.0887 394.41 42.4508 396.236 41.3762 398.042C37.9375 403.831 36.7594 411.786 37.6261 418.409C38.7138 426.712 43.7991 434.607 51.8592 437.579C52.3816 437.766 52.1811 438.6 51.6532 438.416Z" fill="#FFBD59"/>
<path d="M38.7697 377.332C38.5577 375.594 38.6032 373.807 38.5473 372.058C38.5215 371.233 38.4927 370.405 38.4691 369.576C38.4577 369.194 38.6291 367.185 38.3002 366.987C38.1304 366.884 36.4145 368.081 36.1767 368.22L34.054 369.453C32.6735 370.252 31.1507 371.502 29.5643 371.79C28.9971 371.894 28.6136 371.276 28.9973 370.829C29.7073 369.998 30.7344 369.569 31.677 369.031L34.8746 367.207C35.8617 366.647 37.8787 364.864 39.1309 365.562C40.3254 366.226 39.7422 368.773 39.7513 369.87C39.7726 372.333 39.964 374.864 39.7616 377.314C39.7117 377.965 38.8476 377.964 38.7697 377.332Z" fill="#FFBD59"/>
<path d="M38.3151 377.205C38.45 375.329 39.1002 373.453 39.4537 371.605C39.861 369.46 40.2073 367.287 40.3033 365.103L41.4357 365.745C39.6517 366.731 37.9099 367.787 36.229 368.939C34.5949 370.057 33.0861 371.678 31.3104 372.528C30.7939 372.776 30.0054 372.225 30.4106 371.648C31.4878 370.11 33.4239 368.956 34.9485 367.895C36.7838 366.627 38.6965 365.475 40.6755 364.445C41.2742 364.132 41.8892 364.641 41.7856 365.279C41.4359 367.4 41.1515 369.523 40.706 371.63C40.3036 373.524 39.9546 375.673 39.0405 377.388C38.8632 377.71 38.2858 377.597 38.3151 377.205Z" fill="#FFBD59"/>
<path d="M37.3377 378.496C38.344 373.743 39.3766 368.995 40.3314 364.232L41.4409 365.065C39.3477 365.977 37.2658 366.905 35.2439 367.966C33.3819 368.945 31.5833 370.341 29.6 371.032C28.9731 371.251 28.5236 370.387 28.9587 369.946C30.4826 368.397 32.7826 367.422 34.6984 366.447C36.7036 365.426 38.7532 364.485 40.8577 363.689C41.3985 363.484 41.9172 364.088 41.7872 364.598C40.5946 369.305 39.478 374.029 38.3396 378.75C38.1868 379.401 37.1985 379.147 37.3377 378.496Z" fill="#FFBD59"/>
<g filter="url(#filter1_d_104_111)">
<path d="M491 179C491 156.909 473.091 139 451 139C428.909 139 411 156.909 411 179C411 201.091 428.909 219 451 219C473.091 219 491 201.091 491 179Z" fill="url(#paint2_linear_104_111)"/>
<path d="M490.5 179C490.5 157.185 472.815 139.5 451 139.5C429.185 139.5 411.5 157.185 411.5 179C411.5 200.815 429.185 218.5 451 218.5C472.815 218.5 490.5 200.815 490.5 179Z" fill="url(#paint3_linear_104_111)"/>
</g>
<path d="M33.843 127.168L343.163 53.3769C344.121 53.1483 345.115 53.1107 346.087 53.2661C347.06 53.4216 347.992 53.7671 348.832 54.2829C349.671 54.7987 350.4 55.4748 350.978 56.2725C351.555 57.0702 351.97 57.9738 352.199 58.9319L439.448 424.669C439.909 426.604 439.583 428.642 438.542 430.337C437.5 432.031 435.828 433.242 433.893 433.704L124.573 507.495C122.638 507.956 120.599 507.63 118.905 506.589C117.211 505.547 116 503.875 115.538 501.94L28.288 136.203C27.8266 134.268 28.1527 132.229 29.1944 130.535C30.2362 128.841 31.9083 127.629 33.843 127.168Z" fill="url(#paint4_linear_104_111)" stroke="black"/>
<path d="M152.929 171.834L71.0374 191.371C69.2749 191.791 68.1869 193.561 68.6074 195.324C69.0279 197.086 70.7976 198.174 72.5602 197.754L154.452 178.217C156.215 177.797 157.303 176.027 156.882 174.264C156.462 172.502 154.692 171.414 152.929 171.834Z" fill="#121526" fill-opacity="0.8"/>
<path d="M213.657 197.871L80.3965 229.663C78.5162 230.111 77.3556 231.999 77.8042 233.879C78.2528 235.76 80.1406 236.92 82.0208 236.472L215.281 204.68C217.161 204.232 218.322 202.344 217.873 200.464C217.425 198.584 215.537 197.423 213.657 197.871Z" fill="#121526" fill-opacity="0.8"/>
<path d="M185.284 221.454L83.9784 245.622C82.2159 246.042 81.1279 247.812 81.5484 249.575C81.9689 251.337 83.7386 252.425 85.5012 252.005L186.806 227.837C188.569 227.416 189.657 225.646 189.236 223.884C188.816 222.121 187.046 221.033 185.284 221.454Z" fill="#121526" fill-opacity="0.8"/>
<mask id="mask0_104_111" style="mask-type:luminance" maskUnits="userSpaceOnUse" x="426" y="154" width="50" height="50">
<path d="M426 154H475.333V203.333H426V154Z" fill="white"/>
</mask>
<g mask="url(#mask0_104_111)">
<path d="M442.247 190.102C442.329 190.469 442.493 190.812 442.728 191.106C442.963 191.399 443.262 191.635 443.602 191.796C443.942 191.956 444.315 192.037 444.691 192.032C445.067 192.026 445.437 191.935 445.772 191.765C446.22 191.537 446.588 191.177 446.826 190.734L451.123 184.377L461.209 194.464C461.621 194.874 462.179 195.105 462.76 195.106C463.048 195.106 463.334 195.049 463.6 194.939C463.866 194.829 464.108 194.668 464.312 194.464L466.463 192.311C466.769 192.004 466.978 191.614 467.063 191.188C467.147 190.763 467.104 190.322 466.939 189.921C466.829 189.655 466.667 189.413 466.463 189.21L456.377 179.123L462.776 174.827C463.219 174.588 463.578 174.22 463.806 173.771C464.033 173.322 464.118 172.815 464.049 172.317C463.98 171.818 463.76 171.353 463.419 170.983C463.078 170.613 462.632 170.357 462.141 170.247L434.222 162.222L442.247 190.102Z" stroke="#11121C" stroke-width="3" stroke-linecap="round" stroke-linejoin="round"/>
</g>
<path d="M193.686 183.102L76.9612 210.949C74.5437 211.526 73.0515 213.953 73.6282 216.37C74.205 218.788 76.6322 220.28 79.0496 219.703L195.774 191.857C198.191 191.28 199.684 188.853 199.107 186.435C198.53 184.018 196.103 182.526 193.686 183.102Z" fill="#121526" fill-opacity="0.8"/>
<path d="M183.314 255.652L91.8324 277.476C90.0698 277.897 88.9819 279.667 89.4023 281.429C89.8228 283.192 91.5926 284.28 93.3551 283.859L184.837 262.035C186.599 261.614 187.687 259.845 187.267 258.082C186.846 256.32 185.077 255.232 183.314 255.652Z" fill="#121526" fill-opacity="0.7"/>
<path d="M379.135 249.41L101.499 315.645C99.4421 316.135 98.1727 318.2 98.6632 320.256C99.1537 322.312 101.218 323.581 103.275 323.091L380.912 256.856C382.968 256.366 384.237 254.301 383.747 252.245C383.256 250.189 381.192 248.919 379.135 249.41Z" fill="#121526" fill-opacity="0.7"/>
<path d="M383.42 267.374L105.226 333.742C103.346 334.19 102.186 336.078 102.634 337.958C103.083 339.839 104.971 340.999 106.851 340.551L385.044 274.183C386.924 273.735 388.085 271.847 387.636 269.967C387.188 268.087 385.3 266.926 383.42 267.374Z" fill="#121526" fill-opacity="0.7"/>
<path d="M373.861 231.617L97.6132 297.52C95.1957 298.096 93.7035 300.524 94.2802 302.941C94.857 305.359 97.2842 306.851 99.7016 306.274L375.949 240.371C378.367 239.794 379.859 237.367 379.282 234.949C378.706 232.532 376.278 231.04 373.861 231.617Z" fill="#121526" fill-opacity="0.7"/>
<path d="M204.376 343.943L112.894 365.768C111.132 366.188 110.044 367.958 110.464 369.72C110.885 371.483 112.655 372.571 114.417 372.151L205.899 350.326C207.662 349.906 208.749 348.136 208.329 346.373C207.908 344.611 206.139 343.523 204.376 343.943Z" fill="#121526" fill-opacity="0.6"/>
<path d="M371.477 344.553L122.562 403.936C120.505 404.426 119.236 406.491 119.726 408.547C120.217 410.603 122.281 411.872 124.338 411.382L373.254 351.999C375.31 351.508 376.579 349.444 376.089 347.388C375.598 345.331 373.534 344.062 371.477 344.553Z" fill="#121526" fill-opacity="0.6"/>
<path d="M380.868 383.911L131.953 443.294C129.896 443.784 128.627 445.849 129.117 447.905C129.608 449.961 131.672 451.23 133.729 450.74L382.645 391.357C384.701 390.866 385.97 388.802 385.48 386.746C384.989 384.69 382.925 383.42 380.868 383.911Z" fill="#121526" fill-opacity="0.6"/>
<path d="M331.529 334.97L118.78 385.725C116.43 386.286 114.979 388.645 115.54 390.995L115.54 390.996C116.101 393.345 118.46 394.796 120.81 394.235L333.559 343.48C335.909 342.92 337.36 340.561 336.799 338.211L336.799 338.21C336.238 335.86 333.879 334.41 331.529 334.97Z" fill="#121526" fill-opacity="0.6"/>
<path d="M340.918 374.329L128.169 425.084C125.819 425.645 124.368 428.004 124.929 430.354L124.929 430.355C125.49 432.704 127.849 434.155 130.199 433.594L342.948 382.839C345.298 382.279 346.749 379.92 346.188 377.57L346.188 377.569C345.627 375.219 343.268 373.769 340.918 374.329Z" fill="#121526" fill-opacity="0.6"/>
<g filter="url(#filter2_d_104_111)">
<path d="M328.059 123.74L216.704 149.951C210.253 151.469 206.254 157.93 207.772 164.381L223.533 231.341C225.052 237.792 231.512 241.791 237.963 240.273L349.318 214.062C355.769 212.544 359.768 206.083 358.25 199.632L342.489 132.672C340.97 126.221 334.51 122.222 328.059 123.74Z" fill="url(#paint5_linear_104_111)"/>
<path d="M328.174 124.227L216.819 150.437C210.637 151.892 206.805 158.084 208.26 164.266L224.021 231.226C225.476 237.409 231.667 241.241 237.85 239.786L349.205 213.575C355.387 212.12 359.219 205.929 357.764 199.746L342.003 132.786C340.548 126.604 334.356 122.772 328.174 124.227Z" stroke="#121526"/>
</g>
<path d="M249.764 219.223L264.716 166.527L292.916 191.322L302.073 172.469L328.912 200.594L249.764 219.223ZM292.225 156.348C292.603 157.956 292.327 159.649 291.457 161.053C290.588 162.458 289.196 163.46 287.588 163.839C285.98 164.217 284.287 163.941 282.882 163.072C281.478 162.202 280.476 160.81 280.097 159.202C279.909 158.406 279.88 157.58 280.011 156.772C280.142 155.965 280.432 155.191 280.862 154.495C281.293 153.799 281.857 153.195 282.521 152.718C283.185 152.24 283.937 151.898 284.734 151.711C288.084 150.911 291.435 152.995 292.225 156.348Z" fill="#292A37"/>
<g style="mix-blend-mode:multiply" opacity="0.32">
<path d="M392.76 103.312L387.696 77.252C387.386 75.6585 386.455 74.2535 385.109 73.3459C383.763 72.4382 382.112 72.1023 380.518 72.412L56.961 135.312C55.3676 135.622 53.9627 136.553 53.055 137.898C52.1472 139.244 51.8109 140.895 52.12 142.489L57.187 168.549C57.4971 170.143 58.4275 171.548 59.7736 172.456C61.1197 173.364 62.7712 173.7 64.365 173.39L387.922 110.488C389.515 110.178 390.921 109.248 391.828 107.902C392.736 106.556 393.072 104.905 392.763 103.311L392.76 103.312Z" fill="black"/>
</g>
<path d="M377.375 98.3599L56.755 174.84C55.9732 175.027 55.1622 175.057 54.3685 174.931C53.5748 174.804 52.8138 174.522 52.1291 174.101C51.4443 173.68 50.8492 173.128 50.3777 172.477C49.9061 171.826 49.5675 171.089 49.381 170.307L43.221 144.482C43.0344 143.7 43.0036 142.889 43.1304 142.095C43.2572 141.302 43.5391 140.541 43.9601 139.856C44.381 139.171 44.9327 138.576 45.5837 138.105C46.2347 137.633 46.9721 137.294 47.754 137.108L368.374 60.6259C369.156 60.4393 369.967 60.4086 370.761 60.5355C371.554 60.6623 372.315 60.9443 373 61.3654C373.685 61.7864 374.28 62.3382 374.752 62.9893C375.223 63.6404 375.562 64.378 375.748 65.1599L381.908 90.9839C382.095 91.7658 382.125 92.5767 381.999 93.3704C381.872 94.1642 381.59 94.9251 381.169 95.6099C380.748 96.2946 380.196 96.8898 379.545 97.3613C378.894 97.8328 378.157 98.1715 377.375 98.3579V98.3599Z" fill="url(#paint6_linear_104_111)"/>
<path d="M71.4678 143.861L71.4668 143.862C68.8414 144.458 67.1966 147.07 67.7932 149.696L67.7934 149.697C68.39 152.322 71.002 153.967 73.6275 153.37L73.6284 153.37C76.2539 152.773 77.8986 150.161 77.302 147.536L77.3018 147.535C76.7052 144.91 74.0932 143.265 71.4678 143.861Z" fill="#F16C7A"/>
<path d="M86.9828 140.245L86.9818 140.246C84.3564 140.842 82.7116 143.454 83.3082 146.08L83.3084 146.081C83.905 148.706 86.517 150.351 89.1425 149.754L89.1434 149.754C91.7689 149.158 93.4136 146.546 92.817 143.92L92.8168 143.919C92.2202 141.294 89.6082 139.649 86.9828 140.245Z" fill="#49C3E8"/>
<path d="M102.515 136.723L102.514 136.723C99.8884 137.319 98.2436 139.931 98.8402 142.557L98.8404 142.558C99.437 145.183 102.049 146.828 104.674 146.231L104.675 146.231C107.301 145.635 108.946 143.023 108.349 140.397L108.349 140.396C107.752 137.771 105.14 136.126 102.515 136.723Z" fill="#FFD160"/>
<path opacity="0.2" d="M444.356 506H273.653C269.91 506 266.78 503.315 266.661 500.002L258.623 275.764C258.504 272.451 261.442 269.766 265.185 269.766H435.889C439.632 269.766 442.763 272.451 442.881 275.764L450.92 500.002C451.038 503.315 448.099 506 444.356 506Z" fill="black"/>
<path d="M295.736 262.708H278.956C275.213 262.708 272.178 265.474 272.178 268.885V499.823C272.178 503.234 275.213 506 278.956 506H295.736V262.708Z" fill="url(#paint7_linear_104_111)"/>
<path d="M464.5 268.883V499.823C464.5 500.206 464.459 500.58 464.38 500.937C463.812 503.508 461.298 505.498 458.224 505.498H287.52C284.006 505.498 281.24 502.915 281.24 499.823V268.883C281.24 265.791 284.005 263.205 287.52 263.205H458.222C461.734 263.207 464.5 265.793 464.5 268.883Z" fill="url(#paint8_linear_104_111)" stroke="black"/>
<path d="M333.725 307.418L318.563 293.913L303.4 307.418V262.708H333.725V307.418Z" fill="#0F111F"/>
<path d="M436.709 299.11H354.012C352.951 299.11 351.934 299.531 351.184 300.282C350.433 301.032 350.012 302.049 350.012 303.11V303.42C350.012 304.481 350.433 305.498 351.184 306.248C351.934 306.999 352.951 307.42 354.012 307.42H436.709C437.77 307.42 438.787 306.999 439.537 306.248C440.288 305.498 440.709 304.481 440.709 303.42V303.11C440.709 302.049 440.288 301.032 439.537 300.282C438.787 299.531 437.77 299.11 436.709 299.11ZM436.864 329.994H307.02C305.959 329.994 304.942 330.415 304.192 331.166C303.441 331.916 303.02 332.933 303.02 333.994V334.304C303.02 335.365 303.441 336.382 304.192 337.132C304.942 337.883 305.959 338.304 307.02 338.304H436.864C437.925 338.304 438.942 337.883 439.692 337.132C440.443 336.382 440.864 335.365 440.864 334.304V333.994C440.864 332.933 440.443 331.916 439.692 331.166C438.942 330.415 437.925 329.994 436.864 329.994ZM387.497 361H306.637C305.576 361 304.559 361.421 303.809 362.172C303.058 362.922 302.637 363.939 302.637 365C302.637 366.061 303.058 367.078 303.809 367.828C304.559 368.579 305.576 369 306.637 369H387.497C388.558 369 389.575 368.579 390.325 367.828C391.076 367.078 391.497 366.061 391.497 365C391.497 363.939 391.076 362.922 390.325 362.172C389.575 361.421 388.558 361 387.497 361ZM436.864 361H404.273C403.212 361 402.195 361.421 401.445 362.172C400.694 362.922 400.273 363.939 400.273 365C400.273 366.061 400.694 367.078 401.445 367.828C402.195 368.579 403.212 369 404.273 369H436.864C437.925 369 438.942 368.579 439.692 367.828C440.443 367.078 440.864 366.061 440.864 365C440.864 363.939 440.443 362.922 439.692 362.172C438.942 361.421 437.925 361 436.864 361ZM354.586 392H306.637C305.576 392 304.559 392.421 303.809 393.172C303.058 393.922 302.637 394.939 302.637 396C302.637 397.061 303.058 398.078 303.809 398.828C304.559 399.579 305.576 400 306.637 400H354.586C355.647 400 356.664 399.579 357.414 398.828C358.165 398.078 358.586 397.061 358.586 396C358.586 394.939 358.165 393.922 357.414 393.172C356.664 392.421 355.647 392 354.586 392ZM436.865 392H376.848C375.787 392 374.77 392.421 374.02 393.172C373.269 393.922 372.848 394.939 372.848 396C372.848 397.061 373.269 398.078 374.02 398.828C374.77 399.579 375.787 400 376.848 400H436.865C437.926 400 438.943 399.579 439.693 398.828C440.444 398.078 440.865 397.061 440.865 396C440.865 394.939 440.444 393.922 439.693 393.172C438.943 392.421 437.926 392 436.865 392ZM436.709 422.647H307.02C305.959 422.647 304.942 423.068 304.192 423.819C303.441 424.569 303.02 425.586 303.02 426.647V426.957C303.02 428.018 303.441 429.035 304.192 429.785C304.942 430.536 305.959 430.957 307.02 430.957H436.709C437.77 430.957 438.787 430.536 439.537 429.785C440.288 429.035 440.709 428.018 440.709 426.957V426.647C440.709 425.586 440.288 424.569 439.537 423.819C438.787 423.068 437.77 422.647 436.709 422.647ZM351.885 453.531H307.02C305.959 453.531 304.942 453.952 304.192 454.703C303.441 455.453 303.02 456.47 303.02 457.531V457.841C303.02 460.051 304.81 461.841 307.02 461.841H351.885C352.946 461.841 353.963 461.42 354.713 460.669C355.464 459.919 355.885 458.902 355.885 457.841V457.531C355.885 456.47 355.464 455.453 354.713 454.703C353.963 453.952 352.946 453.531 351.885 453.531Z" fill="#121526" fill-opacity="0.7"/>
</g>
<defs>
<filter id="filter0_f_104_111" x="25.7813" y="0.62915" width="557.257" height="624.841" filterUnits="userSpaceOnUse" color-interpolation-filters="sRGB">
<feFlood flood-opacity="0" result="BackgroundImageFix"/>
<feBlend mode="normal" in="SourceGraphic" in2="BackgroundImageFix" result="shape"/>
<feGaussianBlur stdDeviation="50" result="effect1_foregroundBlur_104_111"/>
</filter>
<filter id="filter1_d_104_111" x="361" y="107" width="180" height="180" filterUnits="userSpaceOnUse" color-interpolation-filters="sRGB">
<feFlood flood-opacity="0" result="BackgroundImageFix"/>
<feColorMatrix in="SourceAlpha" type="matrix" values="0 0 0 0 0 0 0 0 0 0 0 0 0 0 0 0 0 0 127 0" result="hardAlpha"/>
<feOffset dy="18"/>
<feGaussianBlur stdDeviation="25"/>
<feComposite in2="hardAlpha" operator="out"/>
<feColorMatrix type="matrix" values="0 0 0 0 0.0666667 0 0 0 0 0.0705882 0 0 0 0 0.109804 0 0 0 0.3 0"/>
<feBlend mode="normal" in2="BackgroundImageFix" result="effect1_dropShadow_104_111"/>
<feBlend mode="normal" in="SourceGraphic" in2="effect1_dropShadow_104_111" result="shape"/>
</filter>
<filter id="filter2_d_104_111" x="195.45" y="123.418" width="163.122" height="129.176" filterUnits="userSpaceOnUse" color-interpolation-filters="sRGB">
<feFlood flood-opacity="0" result="BackgroundImageFix"/>
<feColorMatrix in="SourceAlpha" type="matrix" values="0 0 0 0 0 0 0 0 0 0 0 0 0 0 0 0 0 0 127 0" result="hardAlpha"/>
<feOffset dx="-12" dy="12"/>
<feComposite in2="hardAlpha" operator="out"/>
<feColorMatrix type="matrix" values="0 0 0 0 0 0 0 0 0 0 0 0 0 0 0 0 0 0 0.17 0"/>
<feBlend mode="normal" in2="BackgroundImageFix" result="effect1_dropShadow_104_111"/>
<feBlend mode="normal" in="SourceGraphic" in2="effect1_dropShadow_104_111" result="shape"/>
</filter>
<linearGradient id="paint0_linear_104_111" x1="410.528" y1="141.714" x2="134.18" y2="399.769" gradientUnits="userSpaceOnUse">
<stop stop-color="#00E3F2"/>
<stop offset="0.287" stop-color="#0000F2"/>
<stop offset="0.641" stop-color="#F87D7D"/>
<stop offset="1" stop-color="#FF2828"/>
</linearGradient>
<linearGradient id="paint1_linear_104_111" x1="243.069" y1="-164.146" x2="243.069" y2="506.424" gradientUnits="userSpaceOnUse">
<stop stop-color="#ECF3FE" stop-opacity="0"/>
<stop offset="0.339" stop-color="#ECF3FE" stop-opacity="0.708"/>
<stop offset="1" stop-color="#ECF3FE" stop-opacity="0"/>
</linearGradient>
<linearGradient id="paint2_linear_104_111" x1="451" y1="139" x2="451" y2="219" gradientUnits="userSpaceOnUse">
<stop stop-color="#FFBD59"/>
<stop offset="1" stop-color="#FFD494"/>
</linearGradient>
<linearGradient id="paint3_linear_104_111" x1="451" y1="139.5" x2="451" y2="218.5" gradientUnits="userSpaceOnUse">
<stop stop-color="#FFBD59"/>
<stop offset="1" stop-color="#FFD494"/>
</linearGradient>
<linearGradient id="paint4_linear_104_111" x1="567.762" y1="344.247" x2="371.183" y2="148.794" gradientUnits="userSpaceOnUse">
<stop stop-color="#383947"/>
<stop offset="1" stop-color="#222535"/>
</linearGradient>
<linearGradient id="paint5_linear_104_111" x1="270" y1="134" x2="295.5" y2="230.999" gradientUnits="userSpaceOnUse">
<stop stop-color="#171825"/>
<stop offset="1" stop-color="#171825" stop-opacity="0"/>
</linearGradient>
<linearGradient id="paint6_linear_104_111" x1="542.491" y1="-51.607" x2="-31.853" y2="170.356" gradientUnits="userSpaceOnUse">
<stop stop-color="#4B4D5E"/>
<stop offset="1" stop-color="#11121C"/>
</linearGradient>
<linearGradient id="paint7_linear_104_111" x1="283.957" y1="262.708" x2="283.957" y2="506" gradientUnits="userSpaceOnUse">
<stop stop-color="#0D0F1A"/>
<stop offset="1" stop-color="#1A1C2F"/>
</linearGradient>
<linearGradient id="paint8_linear_104_111" x1="543.875" y1="470.962" x2="449.008" y2="334.678" gradientUnits="userSpaceOnUse">
<stop stop-color="#383947"/>
<stop offset="1" stop-color="#222535"/>
</linearGradient>
<clipPath id="clip0_104_111">
<rect width="584" height="626" fill="white"/>
</clipPath>
</defs>
</svg>
