<svg width="568" height="612" viewBox="0 0 568 612" fill="none" xmlns="http://www.w3.org/2000/svg">
<g clip-path="url(#clip0_104_66)">
<g opacity="0.35" filter="url(#filter0_f_104_66)">
<path d="M259.233 152.325C274.236 69.323 373.626 109.466 393.068 117.135C394.756 118.836 424.623 117.698 460.593 236.663C496.563 355.628 385.166 383.473 338.776 370.795C292.386 358.118 300.626 411.795 256.384 488.046C212.142 564.297 130.903 439.782 122.29 374.386C113.678 308.99 214.033 339.268 238.509 333.473C262.985 327.677 244.23 235.326 259.233 152.325Z" fill="url(#paint0_linear_104_66)"/>
</g>
<path d="M235.314 500.327C105.354 500.327 0 397.946 0 271.652C0 145.358 105.354 42.976 235.314 42.976C365.275 42.976 470.629 145.358 470.629 271.652C470.629 397.946 365.275 500.327 235.314 500.327Z" fill="url(#paint1_linear_104_66)" fill-opacity="0.05"/>
<path d="M61.245 98.658H368.59C370.579 98.658 372.487 99.4481 373.893 100.855C375.3 102.261 376.09 104.169 376.09 106.158V469.651C376.09 471.64 375.3 473.548 373.893 474.954C372.487 476.361 370.579 477.151 368.59 477.151H61.245C59.2559 477.151 57.3482 476.361 55.9417 474.954C54.5352 473.548 53.745 471.64 53.745 469.651V106.158C53.745 104.169 54.5352 102.261 55.9417 100.855C57.3482 99.4481 59.2559 98.658 61.245 98.658Z" fill="url(#paint2_linear_104_66)" stroke="black"/>
<path d="M163.351 167.455H81.83C80.0759 167.455 78.654 168.877 78.654 170.631C78.654 172.385 80.0759 173.807 81.83 173.807H163.351C165.105 173.807 166.527 172.385 166.527 170.631C166.527 168.877 165.105 167.455 163.351 167.455Z" fill="#121526" fill-opacity="0.8"/>
<path d="M305.217 205.568H81.83C80.0759 205.568 78.654 206.99 78.654 208.744C78.654 210.498 80.0759 211.92 81.83 211.92H305.217C306.971 211.92 308.393 210.498 308.393 208.744C308.393 206.99 306.971 205.568 305.217 205.568Z" fill="#121526" fill-opacity="0.8"/>
<path d="M253.34 221.449H81.83C80.0759 221.449 78.654 222.871 78.654 224.625C78.654 226.379 80.0759 227.801 81.83 227.801H253.34C255.094 227.801 256.516 226.379 256.516 224.625C256.516 222.871 255.094 221.449 253.34 221.449Z" fill="#121526" fill-opacity="0.8"/>
<path d="M280.866 187.57H82.889C80.5501 187.57 78.654 189.466 78.654 191.805C78.654 194.144 80.5501 196.04 82.889 196.04H280.866C283.205 196.04 285.101 194.144 285.101 191.805C285.101 189.466 283.205 187.57 280.866 187.57Z" fill="#121526" fill-opacity="0.8"/>
<path d="M172.879 253.21H81.83C80.0759 253.21 78.654 254.632 78.654 256.386C78.654 258.14 80.0759 259.562 81.83 259.562H172.879C174.633 259.562 176.055 258.14 176.055 256.386C176.055 254.632 174.633 253.21 172.879 253.21Z" fill="#121526" fill-opacity="0.7"/>
<path d="M358.682 291.323H82.359C80.3128 291.323 78.654 292.982 78.654 295.028V295.029C78.654 297.075 80.3128 298.734 82.359 298.734H358.682C360.728 298.734 362.387 297.075 362.387 295.029V295.028C362.387 292.982 360.728 291.323 358.682 291.323Z" fill="#121526" fill-opacity="0.7"/>
<path d="M328.508 309.321H81.83C80.0759 309.321 78.654 310.743 78.654 312.497C78.654 314.251 80.0759 315.673 81.83 315.673H328.508C330.262 315.673 331.684 314.251 331.684 312.497C331.684 310.743 330.262 309.321 328.508 309.321Z" fill="#121526" fill-opacity="0.7"/>
<path d="M310.51 273.326H82.889C80.5501 273.326 78.654 275.222 78.654 277.561C78.654 279.9 80.5501 281.796 82.889 281.796H310.51C312.849 281.796 314.745 279.9 314.745 277.561C314.745 275.222 312.849 273.326 310.51 273.326Z" fill="#121526" fill-opacity="0.7"/>
<g opacity="0.6">
<path d="M172.879 341.083H81.83C80.0759 341.083 78.654 342.505 78.654 344.259C78.654 346.013 80.0759 347.435 81.83 347.435H172.879C174.633 347.435 176.055 346.013 176.055 344.259C176.055 342.505 174.633 341.083 172.879 341.083Z" fill="#121526"/>
<path d="M330.097 379.196H82.359C80.3128 379.196 78.654 380.855 78.654 382.901V382.902C78.654 384.948 80.3128 386.607 82.359 386.607H330.097C332.143 386.607 333.802 384.948 333.802 382.902V382.901C333.802 380.855 332.143 379.196 330.097 379.196Z" fill="#121526"/>
<path d="M330.097 418.368H82.359C80.3128 418.368 78.654 420.027 78.654 422.073V422.074C78.654 424.12 80.3128 425.779 82.359 425.779H330.097C332.143 425.779 333.802 424.12 333.802 422.074V422.073C333.802 420.027 332.143 418.368 330.097 418.368Z" fill="#121526"/>
<path d="M294.629 361.198H82.889C80.5501 361.198 78.654 363.094 78.654 365.433C78.654 367.772 80.5501 369.668 82.889 369.668H294.629C296.968 369.668 298.864 367.772 298.864 365.433C298.864 363.094 296.968 361.198 294.629 361.198Z" fill="#121526"/>
<path d="M294.629 400.37H82.889C80.5501 400.37 78.654 402.266 78.654 404.605C78.654 406.944 80.5501 408.84 82.889 408.84H294.629C296.968 408.84 298.864 406.944 298.864 404.605C298.864 402.266 296.968 400.37 294.629 400.37Z" fill="#121526"/>
</g>
<g style="mix-blend-mode:multiply" opacity="0.32">
<path d="M403.94 155.994L405.025 130.316C405.091 128.746 404.531 127.213 403.467 126.056C402.404 124.899 400.924 124.211 399.354 124.145L80.539 110.693C78.9688 110.627 77.4367 111.187 76.2795 112.251C75.1223 113.314 74.4348 114.794 74.368 116.364L73.286 142.042C73.2199 143.612 73.7802 145.145 74.8437 146.302C75.9072 147.459 77.3867 148.146 78.957 148.213L397.772 161.665C399.342 161.731 400.874 161.17 402.031 160.107C403.188 159.043 403.876 157.564 403.943 155.994H403.94Z" fill="black"/>
</g>
<path d="M390.564 147.874L71.464 147.869C70.6859 147.869 69.9154 147.716 69.1964 147.418C68.4775 147.121 67.8243 146.684 67.2741 146.134C66.7239 145.584 66.2875 144.93 65.9897 144.212C65.692 143.493 65.5389 142.722 65.539 141.944L65.54 116.242C65.5399 115.464 65.693 114.693 65.9907 113.974C66.2884 113.255 66.7248 112.602 67.275 112.052C67.8252 111.501 68.4785 111.065 69.1974 110.767C69.9163 110.469 70.6868 110.316 71.465 110.316L390.565 110.321C391.343 110.321 392.114 110.474 392.833 110.772C393.552 111.069 394.205 111.506 394.755 112.056C395.306 112.606 395.742 113.259 396.04 113.978C396.338 114.697 396.491 115.468 396.491 116.246L396.49 141.948C396.49 143.52 395.866 145.027 394.754 146.138C393.643 147.25 392.136 147.874 390.564 147.874Z" fill="url(#paint3_linear_104_66)"/>
<path d="M96.9468 126.772C96.9748 124.165 94.8843 122.03 92.2777 122.002C89.6711 121.974 87.5353 124.064 87.5073 126.671C87.4793 129.277 89.5698 131.413 92.1764 131.441C94.783 131.469 96.9188 129.379 96.9468 126.772Z" fill="#F16C7A"/>
<path d="M112.37 126.852C112.398 124.245 110.307 122.11 107.701 122.082C105.094 122.054 102.958 124.144 102.93 126.751C102.902 129.357 104.993 131.493 107.599 131.521C110.206 131.549 112.342 129.459 112.37 126.852Z" fill="#49C3E8"/>
<path d="M127.786 127.023C127.814 124.416 125.723 122.281 123.117 122.253C120.51 122.225 118.374 124.315 118.346 126.922C118.318 129.528 120.409 131.664 123.015 131.692C125.622 131.72 127.758 129.63 127.786 127.023Z" fill="#FFD160"/>
<path d="M506.058 196.54H186.449C182.307 196.54 178.949 199.898 178.949 204.04V384.959C178.949 389.101 182.307 392.459 186.449 392.459H506.058C510.2 392.459 513.558 389.101 513.558 384.959V204.04C513.558 199.898 510.2 196.54 506.058 196.54Z" fill="url(#paint4_linear_104_66)" stroke="black"/>
<g filter="url(#filter1_d_104_66)">
<path d="M475 192C475 169.909 457.091 152 435 152C412.909 152 395 169.909 395 192C395 214.091 412.909 232 435 232C457.091 232 475 214.091 475 192Z" fill="url(#paint5_linear_104_66)"/>
<path d="M474.5 192C474.5 170.185 456.815 152.5 435 152.5C413.185 152.5 395.5 170.185 395.5 192C395.5 213.815 413.185 231.5 435 231.5C456.815 231.5 474.5 213.815 474.5 192Z" fill="url(#paint6_linear_104_66)"/>
</g>
<path d="M200.125 236.51V230.558H196.669V227.102H200.125V223.518H196.669V220.062H200.125V214.11H203.773V220.062H207.357V214.11H211.005V220.062H214.461V223.518H211.005V227.102H214.461V230.558H211.005V236.51H207.357V230.558H203.773V236.51H200.125ZM203.773 227.102H207.357V223.518H203.773V227.102ZM226.1 236.958C223.455 236.958 221.332 236.233 219.732 234.782C218.132 233.31 217.332 231.092 217.332 228.126V222.494C217.332 219.614 218.132 217.428 219.732 215.934C221.332 214.42 223.455 213.662 226.1 213.662C228.767 213.662 230.89 214.42 232.468 215.934C234.068 217.428 234.868 219.614 234.868 222.494V228.126C234.868 231.092 234.068 233.31 232.468 234.782C230.89 236.233 228.767 236.958 226.1 236.958ZM226.1 233.31C227.7 233.31 228.874 232.873 229.62 231.998C230.388 231.124 230.772 229.876 230.772 228.254V222.302C230.772 220.66 230.346 219.422 229.492 218.59C228.66 217.737 227.53 217.31 226.1 217.31C224.628 217.31 223.476 217.748 222.644 218.622C221.834 219.497 221.428 220.724 221.428 222.302V228.254C221.428 229.94 221.812 231.209 222.58 232.062C223.37 232.894 224.543 233.31 226.1 233.31ZM244.738 236.51V217.118H244.162L241.154 224.222H236.866L241.442 214.11H248.834V236.51H244.738ZM227.973 313.013H202.8V369.668H227.973V313.013Z" fill="#121526"/>
<path d="M279.897 279.31H254.724V369.668H279.897V279.31Z" fill="#121526" fill-opacity="0.4"/>
<path d="M331.818 259.468H306.645V369.668H331.818V259.468Z" fill="#121526"/>
<path d="M383.742 307.419H358.568V369.668H383.742V307.419Z" fill="#121526" fill-opacity="0.4"/>
<path d="M435.667 271.46H410.494V369.668H435.667V271.46Z" fill="#121526"/>
<path d="M487.591 234.154H462.418V369.668H487.591V234.154Z" fill="#121526" fill-opacity="0.4"/>
<mask id="mask0_104_66" style="mask-type:luminance" maskUnits="userSpaceOnUse" x="416" y="172" width="40" height="40">
<path d="M416.279 172.701H455.003V211.425H416.279V172.701Z" fill="white"/>
</mask>
<g mask="url(#mask0_104_66)">
<path d="M434.834 206.584H425.959C425.103 206.584 424.282 206.244 423.677 205.639C423.072 205.034 422.732 204.213 422.732 203.357V180.768C422.732 179.913 423.072 179.092 423.678 178.487C423.978 178.187 424.333 177.95 424.724 177.787C425.116 177.625 425.535 177.542 425.959 177.542H445.321C445.745 177.541 446.165 177.625 446.556 177.786C446.948 177.948 447.304 178.186 447.604 178.486C447.903 178.785 448.141 179.141 448.303 179.533C448.465 179.924 448.548 180.344 448.548 180.768V190.449M430.801 201.744H434.028" stroke="#11121C" stroke-width="3" stroke-linecap="round" stroke-linejoin="round"/>
<path d="M440.482 201.744C440.482 203.028 440.992 204.259 441.9 205.166C442.807 206.074 444.038 206.584 445.322 206.584C446.606 206.584 447.837 206.074 448.744 205.166C449.652 204.259 450.162 203.028 450.162 201.744C450.162 200.46 449.652 199.229 448.744 198.322C447.837 197.414 446.606 196.904 445.322 196.904C444.038 196.904 442.807 197.414 441.9 198.322C440.992 199.229 440.482 200.46 440.482 201.744Z" stroke="#11121C" stroke-width="3" stroke-linecap="round" stroke-linejoin="round"/>
</g>
<path d="M397.662 463.44C405.312 464.803 413.959 462.059 420.214 457.707C426.205 453.539 432.578 445.971 430.259 438.133C429.415 435.278 426.867 432.946 423.813 434.42C420.976 435.787 420.223 439.129 421.694 441.793C425.667 448.987 436.523 445.277 441.64 441.591C444.888 439.252 447.539 436.18 449.379 432.624C451.071 429.339 452.469 425.149 451.833 421.428C451.74 420.893 450.838 420.927 450.758 421.453C450.342 424.269 450.168 426.975 449.14 429.669C448.075 432.465 446.435 435.05 444.413 437.252C440.401 441.624 433.724 445.476 427.563 444.328C424.299 443.718 420.174 439.744 423.179 436.462C424.397 435.133 426.392 434.742 427.75 436.095C428.988 437.332 429.396 439.343 429.452 441.019C429.679 447.842 424.13 453.788 418.816 457.335C415.803 459.342 412.479 460.839 408.979 461.765C405.238 462.758 401.57 462.828 397.736 462.777C397.361 462.77 397.283 463.372 397.662 463.44Z" fill="#FFBD59"/>
<path d="M395.558 463.148C403.463 466.605 412.712 464.774 419.438 459.614C422.674 457.131 425.368 454.014 427.532 450.57C429.74 447.054 431.952 442.816 432.102 438.587C432.21 435.636 430.554 430.898 426.737 431.627C423.378 432.266 420.486 436.314 420.589 439.629C420.706 443.34 424.21 445.789 427.635 446.164C431.724 446.611 435.995 444.814 439.43 442.75C446.954 438.23 452.337 430.321 453.568 421.634C453.686 420.806 452.418 420.475 452.289 421.316C451.337 427.612 448.293 433.406 443.691 437.816C441.347 440.064 438.599 441.925 435.617 443.227C432.202 444.714 427.864 445.934 424.458 443.793C420.698 441.431 421.471 436.946 424.437 434.273C426.167 432.713 428.347 432.093 429.867 434.318C431.102 436.124 431.055 438.576 430.609 440.63C429.176 447.209 424.613 453.83 419.461 458.083C413.003 463.413 403.9 465.719 395.978 462.395C395.469 462.175 395.046 462.922 395.558 463.148Z" fill="#FFBD59"/>
<path d="M446.64 427.262C447.981 426.135 449.166 424.797 450.4 423.556C450.981 422.97 451.567 422.385 452.15 421.794C452.419 421.523 453.663 419.937 454.039 420.016C454.233 420.057 454.672 422.102 454.751 422.366L455.463 424.716C455.927 426.242 456.189 428.194 457.152 429.487C457.496 429.95 458.198 429.759 458.222 429.171C458.27 428.078 457.811 427.064 457.489 426.028L456.394 422.513C456.054 421.431 455.795 418.751 454.403 418.407C453.077 418.078 451.766 420.339 451.011 421.135C449.316 422.922 447.45 424.642 445.927 426.572C445.52 427.082 446.152 427.671 446.64 427.262Z" fill="#FFBD59"/>
<path d="M447.059 427.479C448.24 426.015 449.044 424.2 450.046 422.607C451.211 420.76 452.44 418.935 453.859 417.272L452.593 416.97C453.225 418.907 453.779 420.867 454.222 422.856C454.655 424.789 454.653 427.003 455.372 428.836C455.581 429.369 456.533 429.505 456.63 428.806C456.891 426.947 456.263 424.782 455.871 422.966C455.393 420.787 454.78 418.64 454.035 416.537C453.811 415.9 453.014 415.853 452.655 416.39C451.464 418.18 450.224 419.926 449.113 421.771C448.116 423.431 446.905 425.24 446.404 427.118C446.314 427.474 446.813 427.785 447.059 427.479Z" fill="#FFBD59"/>
<path d="M446.894 429.09C449.399 424.927 451.882 420.751 454.432 416.616L453.053 416.468C453.962 418.563 454.851 420.662 455.606 422.817C456.3 424.803 456.664 427.05 457.643 428.908C457.952 429.496 458.87 429.17 458.853 428.551C458.795 426.379 457.777 424.097 457.041 422.078C456.272 419.963 455.414 417.878 454.418 415.86C454.162 415.341 453.371 415.429 453.118 415.891C450.78 420.147 448.375 424.363 445.987 428.592C445.656 429.172 446.552 429.66 446.894 429.09Z" fill="#FFBD59"/>
</g>
<defs>
<filter id="filter0_f_104_66" x="21.7675" y="0.703369" width="545.859" height="611.286" filterUnits="userSpaceOnUse" color-interpolation-filters="sRGB">
<feFlood flood-opacity="0" result="BackgroundImageFix"/>
<feBlend mode="normal" in="SourceGraphic" in2="BackgroundImageFix" result="shape"/>
<feGaussianBlur stdDeviation="50" result="effect1_foregroundBlur_104_66"/>
</filter>
<filter id="filter1_d_104_66" x="345" y="120" width="180" height="180" filterUnits="userSpaceOnUse" color-interpolation-filters="sRGB">
<feFlood flood-opacity="0" result="BackgroundImageFix"/>
<feColorMatrix in="SourceAlpha" type="matrix" values="0 0 0 0 0 0 0 0 0 0 0 0 0 0 0 0 0 0 127 0" result="hardAlpha"/>
<feOffset dy="18"/>
<feGaussianBlur stdDeviation="25"/>
<feComposite in2="hardAlpha" operator="out"/>
<feColorMatrix type="matrix" values="0 0 0 0 0.0666667 0 0 0 0 0.0705882 0 0 0 0 0.109804 0 0 0 0.3 0"/>
<feBlend mode="normal" in2="BackgroundImageFix" result="effect1_dropShadow_104_66"/>
<feBlend mode="normal" in="SourceGraphic" in2="effect1_dropShadow_104_66" result="shape"/>
</filter>
<linearGradient id="paint0_linear_104_66" x1="397.43" y1="140.477" x2="129.898" y2="390.299" gradientUnits="userSpaceOnUse">
<stop stop-color="#00E3F2"/>
<stop offset="0.287" stop-color="#0000F2"/>
<stop offset="0.641" stop-color="#F87D7D"/>
<stop offset="1" stop-color="#FF2828"/>
</linearGradient>
<linearGradient id="paint1_linear_104_66" x1="235.314" y1="-148.847" x2="235.314" y2="500.327" gradientUnits="userSpaceOnUse">
<stop stop-color="#ECF3FE" stop-opacity="0"/>
<stop offset="0.339" stop-color="#ECF3FE" stop-opacity="0.708"/>
<stop offset="1" stop-color="#ECF3FE" stop-opacity="0"/>
</linearGradient>
<linearGradient id="paint2_linear_104_66" x1="515" y1="423" x2="373.794" y2="194.788" gradientUnits="userSpaceOnUse">
<stop stop-color="#383947"/>
<stop offset="1" stop-color="#222535"/>
</linearGradient>
<linearGradient id="paint3_linear_104_66" x1="579.738" y1="43.7461" x2="-10.967" y2="123.741" gradientUnits="userSpaceOnUse">
<stop stop-color="#4B4D5E"/>
<stop offset="1" stop-color="#11121C"/>
</linearGradient>
<linearGradient id="paint4_linear_104_66" x1="657.72" y1="364.601" x2="611.489" y2="215.146" gradientUnits="userSpaceOnUse">
<stop stop-color="#383947"/>
<stop offset="1" stop-color="#222535"/>
</linearGradient>
<linearGradient id="paint5_linear_104_66" x1="435" y1="152" x2="435" y2="232" gradientUnits="userSpaceOnUse">
<stop stop-color="#FFBD59"/>
<stop offset="1" stop-color="#FFD494"/>
</linearGradient>
<linearGradient id="paint6_linear_104_66" x1="435" y1="152.5" x2="435" y2="231.5" gradientUnits="userSpaceOnUse">
<stop stop-color="#FFBD59"/>
<stop offset="1" stop-color="#FFD494"/>
</linearGradient>
<clipPath id="clip0_104_66">
<rect width="568" height="612" fill="white"/>
</clipPath>
</defs>
</svg>
