<?xml version="1.0" encoding="UTF-8" standalone="no"?>
<!DOCTYPE svg PUBLIC "-//W3C//DTD SVG 1.1//EN" "http://www.w3.org/Graphics/SVG/1.1/DTD/svg11.dtd">
<svg xmlns="http://www.w3.org/2000/svg" version="1.1" viewBox="0.00 0.00 512.00 512.00">
<path fill="#fffff" d="
  M 512.00 119.30
  L 512.00 393.30
  C 510.06 418.13 490.68 435.95 465.75 435.95
  Q 259.37 436.01 52.98 435.99
  Q 39.53 435.99 33.77 434.50
  C 14.50 429.53 1.39 412.80 0.00 392.93
  L 0.00 118.70
  C 1.49 98.87 14.84 82.27 33.91 77.48
  Q 39.79 76.01 52.84 76.01
  Q 259.54 75.99 466.25 76.02
  C 491.31 76.02 509.98 94.23 512.00 119.30
  Z
  M 52.71 106.69
  C 115.41 169.79 178.04 233.08 241.16 295.80
  Q 246.18 300.79 249.60 302.20
  C 257.07 305.28 263.81 302.87 269.44 297.23
  Q 364.59 201.91 459.68 106.39
  A 0.23 0.23 0.0 0 0 459.52 106.00
  L 52.99 106.00
  A 0.40 0.40 0.0 0 0 52.71 106.69
  Z
  M 30.54 127.04
  A 0.32 0.32 0.0 0 0 30.00 127.27
  L 30.00 384.73
  A 0.32 0.32 0.0 0 0 30.54 384.96
  L 158.84 256.23
  A 0.32 0.32 0.0 0 0 158.84 255.77
  L 30.54 127.04
  Z
  M 481.38 384.87
  A 0.36 0.36 0.0 0 0 482.00 384.62
  L 482.00 127.38
  A 0.36 0.36 0.0 0 0 481.38 127.13
  L 353.23 255.75
  A 0.36 0.36 0.0 0 0 353.23 256.25
  L 481.38 384.87
  Z
  M 459.67 405.58
  L 332.05 277.53
  A 0.34 0.34 0.0 0 0 331.57 277.53
  Q 312.22 296.93 293.39 315.72
  Q 285.89 323.20 282.13 325.73
  C 267.24 335.74 247.06 335.77 231.99 327.00
  Q 227.34 324.28 220.91 317.94
  Q 200.60 297.90 180.75 277.77
  Q 180.26 277.28 179.77 277.77
  L 52.45 405.46
  A 0.32 0.31 -67.4 0 0 52.67 406.00
  L 459.50 406.00
  A 0.25 0.24 67.3 0 0 459.67 405.58
  Z"
/>
</svg>
