<?xml version="1.0" encoding="UTF-8" standalone="no"?>
<!DOCTYPE svg PUBLIC "-//W3C//DTD SVG 1.1//EN" "http://www.w3.org/Graphics/SVG/1.1/DTD/svg11.dtd">
<svg xmlns="http://www.w3.org/2000/svg" version="1.1" viewBox="0.00 0.00 1165.00 785.00">
<path fill="#fefefe" d="
  M 1164.44 785.00
  L 972.46 785.00
  L 687.58 210.15
  A 1.08 1.05 44.3 0 1 687.56 209.27
  L 774.80 0.76
  A 0.37 0.37 0.0 0 1 775.48 0.74
  L 1164.65 784.30
  Q 1164.77 784.53 1164.62 784.76
  Q 1164.55 784.88 1164.44 785.00
  Z"
/>
<path fill="#fefefe" d="
  M 0.00 10.00
  L 184.73 10.02
  Q 185.24 10.02 185.24 10.53
  L 185.24 785.00
  L 0.00 785.00
  L 0.00 10.00
  Z"
/>
<path fill="#fefefe" d="
  M 545.99 785.00
  L 357.10 785.00
  Q 416.23 734.42 466.34 675.60
  C 497.89 638.56 529.74 594.48 545.32 547.93
  A 0.34 0.34 0.0 0 1 545.99 548.04
  L 545.99 785.00
  Z"
/>
</svg>
