<svg width="96" height="160" viewBox="0 0 96 160" fill="none" xmlns="http://www.w3.org/2000/svg">
<g clip-path="url(#clip0_102_2)">
<path d="M35.4 31.3H61.14V134.26H102V160H35.4V31.3ZM190.77 160H124.17V31.3H188.61V57.04H149.91V82.78H183.75V108.52H149.91V134.26H190.77V160ZM307.753 152.08C297.853 157.66 286.693 160.72 274.453 160.72C189.493 160.72 185.173 33.46 274.453 30.22C289.753 29.68 302.173 34.18 304.513 34.9L301.453 61C296.413 58.84 288.133 55.96 274.453 56.32C222.433 58.12 224.773 134.98 274.453 134.98C276.793 134.98 279.313 134.62 281.653 134.26V95.56H307.753V152.08ZM324.466 160L378.646 26.62H381.346L435.526 160H406.546L401.326 146.14H358.666L353.626 160H324.466ZM368.026 122.02H391.786L380.086 88.54L368.026 122.02ZM453.584 31.3H479.324V134.26H520.184V160H453.584V31.3ZM530.833 160L585.013 26.62H587.713L641.893 160H612.913L607.693 146.14H565.033L559.993 160H530.833ZM574.393 122.02H598.153L586.453 88.54L574.393 122.02ZM698.493 160H672.753V57.04H640.713V31.48H730.533V57.04H698.493V160ZM807.652 161.8C719.092 161.8 719.092 29.14 807.652 29.14C896.212 29.14 896.212 161.8 807.652 161.8ZM807.652 135.16C859.132 135.16 859.132 55.6 807.652 55.6C756.172 55.6 756.172 135.16 807.652 135.16ZM962.214 160L936.294 110.86H923.874V160H898.134V31.3H948.894C994.794 31.3 999.294 95.92 961.494 106.9L991.374 160H962.214ZM923.874 85.84H946.554C964.014 85.84 964.014 57.04 946.554 57.04H923.874V85.84Z" fill="white" fill-opacity="0.1"/>
<path d="M14.4 6.29999H40.14V109.26H81V135H14.4V6.29999ZM169.77 135H103.17V6.29999H167.61V32.04H128.91V57.78H162.75V83.52H128.91V109.26H169.77V135ZM286.753 127.08C276.853 132.66 265.693 135.72 253.453 135.72C168.493 135.72 164.173 8.46 253.453 5.22C268.753 4.67999 281.173 9.17999 283.513 9.89999L280.453 36C275.413 33.84 267.133 30.96 253.453 31.32C201.433 33.12 203.773 109.98 253.453 109.98C255.793 109.98 258.313 109.62 260.653 109.26V70.56H286.753V127.08ZM303.466 135L357.646 1.61999H360.346L414.526 135H385.546L380.326 121.14H337.666L332.626 135H303.466ZM347.026 97.02H370.786L359.086 63.54L347.026 97.02ZM432.584 6.29999H458.324V109.26H499.184V135H432.584V6.29999ZM509.833 135L564.013 1.61999H566.713L620.893 135H591.913L586.693 121.14H544.033L538.993 135H509.833ZM553.393 97.02H577.153L565.453 63.54L553.393 97.02ZM677.493 135H651.753V32.04H619.713V6.47999H709.533V32.04H677.493V135ZM786.652 136.8C698.092 136.8 698.092 4.13999 786.652 4.13999C875.212 4.13999 875.212 136.8 786.652 136.8ZM786.652 110.16C838.132 110.16 838.132 30.6 786.652 30.6C735.172 30.6 735.172 110.16 786.652 110.16ZM941.214 135L915.294 85.86H902.874V135H877.134V6.29999H927.894C973.794 6.29999 978.294 70.92 940.494 81.9L970.374 135H941.214ZM902.874 60.84H925.554C943.014 60.84 943.014 32.04 925.554 32.04H902.874V60.84Z" fill="white"/>
</g>
<defs>
<clipPath id="clip0_102_2">
<rect width="96" height="160" fill="white"/>
</clipPath>
</defs>
</svg>
