<svg width="1600" height="212" viewBox="0 0 1600 212" fill="none" xmlns="http://www.w3.org/2000/svg">
<g clip-path="url(#clip0_105_184)">
<path d="M0 154H1600V166H0V154ZM0 175H1600V188H0V175ZM0 198H1600V212H0V198ZM0 135H1600V146H0V135ZM0 117H1600V127H0V117ZM0 100H1600V109H0V100ZM0 84H1600V92H0V84ZM0 69H1600V76H0V69ZM0 55H1600V61H0V55ZM0 42H1600V47H0V42ZM0 30H1600V34H0V30ZM0 19H1600V22H0V19ZM0 9H1600V11H0V9ZM0 0H1600V1H0V0Z" fill="#1B1B1C"/>
</g>
<defs>
<clipPath id="clip0_105_184">
<rect width="1600" height="212" fill="white"/>
</clipPath>
</defs>
</svg>
