<svg width="1600" height="290" viewBox="0 0 1600 290" fill="none" xmlns="http://www.w3.org/2000/svg">
<g clip-path="url(#clip0_105_188)">
<path d="M0 210.66H1600V227.075H0V210.66ZM0 239.387H1600V257.17H0V239.387ZM0 270.849H1600V290H0V270.849ZM0 184.67H1600V199.717H0V184.67ZM0 160.047H1600V173.726H0V160.047ZM0 136.792H1600V149.103H0V136.792ZM0 114.905H1600V125.848H0V114.905ZM0 94.387H1600V103.962H0V94.387ZM0 75.236H1600V83.444H0V75.236ZM0 57.453H1600V64.293H0V57.453ZM0 41.038H1600V46.51H0V41.038ZM0 25.991H1600V30.095H0V25.991ZM0 12.312H1600V15.048H0V12.312ZM0 0H1600V1.368H0V0Z" fill="#1B1B1C"/>
</g>
<defs>
<clipPath id="clip0_105_188">
<rect width="1600" height="290" fill="white"/>
</clipPath>
</defs>
</svg>
