<svg width="513" height="512" viewBox="0 0 513 512" fill="none" xmlns="http://www.w3.org/2000/svg">
<g clip-path="url(#clip0_111_19)">
<path fill-rule="evenodd" clip-rule="evenodd" d="M236 0.647932C191.581 4.80593 153.183 17.9309 116.5 41.4959C92.2873 57.0509 66.1933 81.9379 48.3453 106.5C5.82331 165.017 -9.47569 239.385 6.10631 311.823C11.9933 339.193 24.8443 369.577 41.4963 395.5C57.0513 419.713 81.9383 445.807 106.5 463.655C165.017 506.177 239.385 521.476 311.823 505.894C339.193 500.007 369.577 487.156 395.5 470.504C419.713 454.949 445.807 430.062 463.655 405.5C489.626 369.76 507.184 323.421 510.571 281.682C510.96 276.877 511.667 272.706 512.14 272.414C512.613 272.121 513 264.232 513 254.882C513 243.803 512.652 238.097 512 238.5C511.389 238.878 511 237.342 511 234.552C511 222.273 505.637 196.051 498.983 175.801C478.037 112.049 431.334 57.8379 371.36 27.6599C341.911 12.8409 316.156 5.25293 282.5 1.47693C270.994 0.186932 245.737 -0.264068 236 0.647932ZM239.5 35.0099C170.112 40.3559 107.763 77.5169 69.5193 136.319C26.5783 202.345 22.9033 289.637 60.1193 359.591C100.99 436.415 184.022 483.009 269.413 477.038C310.919 474.135 344.563 462.836 378.5 440.402C417.439 414.66 447.696 376.512 463.914 332.713C481.673 284.75 482.061 230.935 464.998 182.5C445.928 128.37 406.173 83.3539 354.894 57.8259C319.027 39.9699 278.675 31.9919 239.5 35.0099ZM250 106.668C246.155 108.25 242.605 111.658 240.905 115.401C239.157 119.25 239.043 123.143 239.022 179.25L239 239L179.25 239.022C123.143 239.043 119.25 239.157 115.401 240.905C109.076 243.778 106.5 248.147 106.5 256C106.5 263.853 109.076 268.222 115.401 271.095C119.25 272.843 123.143 272.957 179.25 272.978L239 273L239.022 332.75C239.043 388.857 239.157 392.75 240.905 396.599C243.778 402.924 248.147 405.5 256 405.5C263.853 405.5 268.222 402.924 271.095 396.599C272.843 392.75 272.957 388.857 272.978 332.75L273 273L332.75 272.978C388.857 272.957 392.75 272.843 396.599 271.095C402.924 268.222 405.5 263.853 405.5 256C405.5 248.147 402.924 243.778 396.599 240.905C392.75 239.157 388.857 239.043 332.75 239.022L273 239L272.978 179.25C272.957 123.143 272.843 119.25 271.095 115.401C268.459 109.598 263.924 106.665 257.065 106.326C254.004 106.175 250.825 106.329 250 106.668ZM0.411312 256C0.411312 265.625 0.561312 269.563 0.745312 264.75C0.928312 259.938 0.928312 252.062 0.745312 247.25C0.561312 242.438 0.411312 246.375 0.411312 256Z" fill="white"/>
</g>
<defs>
<clipPath id="clip0_111_19">
<rect width="513" height="512" fill="white"/>
</clipPath>
</defs>
</svg>
