<svg width="311" height="373" viewBox="0 0 311 373" fill="none" xmlns="http://www.w3.org/2000/svg">
<g clip-path="url(#clip0_109_4)">
<path fill-rule="evenodd" clip-rule="evenodd" d="M279.083 0.878795C291.51 4.74061 302.431 14.3618 307.969 26.3271L311 32.8773V186.641V340.405L307.969 346.955C303.811 355.939 295.559 364.687 286.975 369.213L279.793 373H187.589H95.3849L88.2029 369.213C75.0433 362.275 66.0782 349.41 64.1249 334.664C63.2738 328.234 63.566 327.042 66.9946 322.972C69.9337 319.482 71.9424 318.439 75.7157 318.439C81.6834 318.439 87.583 323.713 87.583 329.049C87.583 334.317 90.8825 341.278 95.3168 345.365L99.1595 348.908H187.589H276.018L279.861 345.365C287.936 337.922 287.594 344.929 287.594 186.641C287.594 28.3536 287.936 35.3602 279.861 27.9171L276.018 24.3742H187.589H99.1595L95.3168 27.9171C90.8825 32.0043 87.583 38.9655 87.583 44.2331C87.583 49.5688 81.6834 54.8435 75.7157 54.8435C71.9424 54.8435 69.9337 53.8005 66.9946 50.31C63.566 46.2398 63.2738 45.048 64.1249 38.6183C66.0782 23.8725 75.0433 11.0074 88.2029 4.06886L95.3849 0.282161L185.461 0.0284847C235.003 -0.110399 277.133 0.272243 279.083 0.878795ZM84.6424 115.265C90.9293 123.249 89.6157 125.59 64.8867 150.461C52.4037 163.014 42.1903 173.741 42.1903 174.295C42.1903 174.85 72.2346 175.304 108.954 175.304C148.982 175.304 176.738 175.849 178.268 176.667C179.669 177.417 181.62 179.968 182.601 182.336C184.691 187.375 182.587 194.305 178.268 196.615C176.738 197.433 148.982 197.979 108.954 197.979C72.2346 197.979 42.1903 198.432 42.1903 198.988C42.1903 199.542 52.4037 210.268 64.8867 222.822C89.6157 247.692 90.9293 250.033 84.6424 258.017C82.3146 260.975 80.4833 261.752 75.8447 261.752C70.0941 261.752 69.3734 261.141 36.3006 228.203C17.7719 209.751 1.86605 192.851 0.951109 190.647C-0.317049 187.586 -0.317049 185.696 0.951109 182.635C1.86605 180.431 17.7719 163.531 36.3006 145.08C69.3734 112.141 70.0941 111.531 75.8447 111.531C80.4833 111.531 82.3146 112.307 84.6424 115.265Z" fill="#DDDDDD"/>
</g>
<defs>
<clipPath id="clip0_109_4">
<rect width="311" height="373" fill="white" transform="matrix(-1 0 0 -1 311 373)"/>
</clipPath>
</defs>
</svg>
