<svg width="1049" height="1048" viewBox="0 0 1049 1048" fill="none" xmlns="http://www.w3.org/2000/svg">
<g clip-path="url(#clip0_112_24)">
<path fill-rule="evenodd" clip-rule="evenodd" d="M483.24 0.87147C355.886 12.6652 246.914 62.2557 158.272 148.758C19.8649 283.824 -32.9012 482.95 20.4615 668.818C58.4538 801.146 148.592 914.476 269.514 981.95C427.34 1070.02 621.74 1070.02 779.566 981.95C900.489 914.476 990.627 801.146 1028.62 668.818C1078 496.833 1036.28 311.011 918.375 177.721C830.902 78.8349 714.663 18.0561 583.541 2.64354C562.555 0.176793 502.247 -0.888808 483.24 0.87147ZM503.562 206.602C473.274 210.31 445.8 220.51 419.804 237.699C405.963 246.85 385.213 266.676 374.395 281.085C358.227 302.619 345.045 332.954 340.142 359.909C337.078 376.744 337.078 408.61 340.142 425.444C352.357 492.591 400.982 548.555 465.997 570.301C485.986 576.987 500.948 579.282 524.54 579.282C548.247 579.282 563.093 576.987 583.462 570.174C639.277 551.505 683.467 507.236 702.221 451.201C708.909 431.219 711.205 416.262 711.205 392.677C711.205 353.395 701.416 320.998 679.567 287.974C670.413 274.137 650.581 253.393 636.168 242.579C614.736 226.499 583.937 213.092 557.974 208.54C543.272 205.962 516.563 205.011 503.562 206.602ZM493.073 637.33C384.747 647.812 288.932 704.883 228.256 795.063C218.044 810.241 209.298 825.833 201.795 842.238L195.504 855.99L203.015 863.628C219.892 880.787 256.197 908.572 281.898 924C341.454 959.751 402.474 980.422 474.718 989.319C495.372 991.862 558.727 991.431 580.263 988.599C673.482 976.346 754.284 941.24 825.641 881.988C832.743 876.09 841.934 867.828 846.065 863.628L853.577 855.99L847.286 842.238C830.126 804.721 806.985 771.859 775.703 740.586C728.91 693.809 674.508 662.889 610.768 646.845C582.411 639.707 564.962 637.603 530.44 637.161C513.134 636.941 496.318 637.017 493.073 637.33Z" fill="#F3F3F3"/>
</g>
<defs>
<clipPath id="clip0_112_24">
<rect width="1049" height="1048" fill="white"/>
</clipPath>
</defs>
</svg>
